<?xml version="1.0" standalone="no"?>
<!DOCTYPE svg PUBLIC "-//W3C//DTD SVG 20010904//EN"
 "http://www.w3.org/TR/2001/REC-SVG-20010904/DTD/svg10.dtd">
<svg version="1.0" xmlns="http://www.w3.org/2000/svg"
 width="96.000000pt" height="96.000000pt" viewBox="0 0 96.000000 96.000000"
 preserveAspectRatio="xMidYMid meet">
<metadata>
Created by potrace 1.14, written by Peter Selinger 2001-2017
</metadata>
<g transform="translate(0.000000,96.000000) scale(0.100000,-0.100000)"
fill="#000000" stroke="none">
<path d="M0 480 l0 -480 480 0 480 0 0 480 0 480 -480 0 -480 0 0 -480z m108
368 c5 -7 27 -66 48 -130 21 -65 41 -118 45 -118 3 0 19 35 34 78 65 180 66
183 83 180 10 -2 31 -48 63 -138 54 -155 44 -157 107 25 26 75 44 111 55 113
10 2 17 -3 17 -11 0 -26 -101 -301 -116 -317 -21 -22 -36 0 -74 110 -55 158
-50 147 -60 129 -5 -9 -26 -63 -46 -120 -41 -118 -57 -141 -77 -119 -14 15
-117 297 -117 319 0 15 25 14 38 -1z m720 -420 c3 -16 -5 -18 -57 -18 l-61 0
0 -145 c0 -124 -2 -147 -16 -152 -28 -10 -33 17 -31 159 l2 138 -57 0 c-31 0
-60 5 -63 10 -16 25 11 30 143 28 121 -3 137 -5 140 -20z"/>
</g>
</svg>
